<?xml version="1.0" encoding="UTF-8" standalone="no"?>
<svg
   height="176.389mm"
   style="shape-rendering:geometricPrecision; text-rendering:geometricPrecision; image-rendering:optimizeQuality; fill-rule:evenodd; clip-rule:evenodd"
   version="1.1"
   viewBox="0 0 17639 17639"
   width="176.389mm"
   xml:space="preserve"
   id="svg9"
   xmlns="http://www.w3.org/2000/svg"
   xmlns:svg="http://www.w3.org/2000/svg"><defs
     id="defs4"><style
       type="text/css"
       id="style2">
   <![CDATA[
    .fil0 {fill:#EB3B00}
   ]]>
  </style></defs><g
     id="Layer_x0020_1"
     style="fill:#002fd3;fill-opacity:1"><path
       class="fil0"
       d="M10438 4190l-16 9712 -7089 -982c162,-163 368,-204 602,-297 202,-80 360,-141 559,-220 387,-153 788,-345 1150,-445l1 -6624 4793 -1144zm-7251 8644c0,0 62,72 123,112 68,44 87,46 163,78 114,47 233,85 355,128 245,84 452,167 699,260l4200 1552c1864,654 1327,764 2879,298l2227 -652c401,-119 576,-89 619,-278l0 -11026c-81,-169 -40,-114 -291,-187l-1118 -322c-490,-139 -980,-285 -1484,-435 -539,-160 -977,-395 -1477,-190l-6895 2580 0 8082z"
       id="path6"
       style="fill:#002fd3;fill-opacity:1" /></g></svg>
